<mxfile host="app.diagrams.net" modified="2023-02-26T08:18:48.255Z" agent="5.0 (Windows NT 10.0; Win64; x64) AppleWebKit/537.36 (KHTML, like Gecko) Chrome/110.0.0.0 Safari/537.36" etag="DMtWNbPaGoZEFEOsEsnj" version="20.8.23" type="github">
  <diagram name="Page-1" id="tHcj789STNU8pIy6AydS">
    <mxGraphModel dx="794" dy="419" grid="1" gridSize="10" guides="1" tooltips="1" connect="1" arrows="1" fold="1" page="1" pageScale="1" pageWidth="850" pageHeight="1100" math="0" shadow="0">
      <root>
        <mxCell id="0" />
        <mxCell id="1" parent="0" />
        <mxCell id="SSMy7xWhFjjoF7A64Ty3-3" style="edgeStyle=orthogonalEdgeStyle;rounded=0;orthogonalLoop=1;jettySize=auto;html=1;entryX=0.5;entryY=0;entryDx=0;entryDy=0;" edge="1" parent="1" source="SSMy7xWhFjjoF7A64Ty3-1" target="SSMy7xWhFjjoF7A64Ty3-2">
          <mxGeometry relative="1" as="geometry" />
        </mxCell>
        <mxCell id="SSMy7xWhFjjoF7A64Ty3-1" value="Phase I&lt;br&gt;Project Requirement Gathering , Project Discussion, Creating SRS, sprint planning for project, AGILE based Modeling&amp;nbsp;&lt;br&gt;(20th March to 23rd March)" style="rounded=1;whiteSpace=wrap;html=1;" vertex="1" parent="1">
          <mxGeometry x="90" y="60" width="350" height="140" as="geometry" />
        </mxCell>
        <mxCell id="SSMy7xWhFjjoF7A64Ty3-6" style="edgeStyle=orthogonalEdgeStyle;rounded=0;orthogonalLoop=1;jettySize=auto;html=1;entryX=0.5;entryY=0;entryDx=0;entryDy=0;" edge="1" parent="1" source="SSMy7xWhFjjoF7A64Ty3-2" target="SSMy7xWhFjjoF7A64Ty3-5">
          <mxGeometry relative="1" as="geometry" />
        </mxCell>
        <mxCell id="SSMy7xWhFjjoF7A64Ty3-2" value="24th March Finalization of Phase I and Presentation to respective Bank Team" style="whiteSpace=wrap;html=1;rounded=1;" vertex="1" parent="1">
          <mxGeometry x="192.5" y="320" width="145" height="60" as="geometry" />
        </mxCell>
        <mxCell id="SSMy7xWhFjjoF7A64Ty3-7" style="edgeStyle=orthogonalEdgeStyle;rounded=0;orthogonalLoop=1;jettySize=auto;html=1;entryX=0.5;entryY=0;entryDx=0;entryDy=0;" edge="1" parent="1" source="SSMy7xWhFjjoF7A64Ty3-5">
          <mxGeometry relative="1" as="geometry">
            <mxPoint x="265" y="540" as="targetPoint" />
          </mxGeometry>
        </mxCell>
        <mxCell id="SSMy7xWhFjjoF7A64Ty3-5" value="Phase II (Coding and Testing)" style="whiteSpace=wrap;html=1;rounded=1;" vertex="1" parent="1">
          <mxGeometry x="205" y="440" width="120" height="60" as="geometry" />
        </mxCell>
        <mxCell id="SSMy7xWhFjjoF7A64Ty3-12" style="edgeStyle=orthogonalEdgeStyle;rounded=0;orthogonalLoop=1;jettySize=auto;html=1;entryX=0.5;entryY=0;entryDx=0;entryDy=0;" edge="1" parent="1" source="SSMy7xWhFjjoF7A64Ty3-8" target="SSMy7xWhFjjoF7A64Ty3-9">
          <mxGeometry relative="1" as="geometry" />
        </mxCell>
        <mxCell id="SSMy7xWhFjjoF7A64Ty3-8" value="27th March to 31st Sprint I&amp;nbsp;&lt;br&gt;31st March Sprint I discussion and Presentation&lt;br&gt;(everyday Scrum call in the morning and evening to get the status)" style="whiteSpace=wrap;html=1;rounded=1;" vertex="1" parent="1">
          <mxGeometry x="155" y="540" width="220" height="100" as="geometry" />
        </mxCell>
        <mxCell id="SSMy7xWhFjjoF7A64Ty3-13" style="edgeStyle=orthogonalEdgeStyle;rounded=0;orthogonalLoop=1;jettySize=auto;html=1;entryX=0.5;entryY=0;entryDx=0;entryDy=0;" edge="1" parent="1" source="SSMy7xWhFjjoF7A64Ty3-9" target="SSMy7xWhFjjoF7A64Ty3-10">
          <mxGeometry relative="1" as="geometry" />
        </mxCell>
        <mxCell id="SSMy7xWhFjjoF7A64Ty3-9" value="3rd April to 7th April Sprint II&amp;nbsp;&lt;br&gt;7th April Sprint II discussion and Presentation&lt;br&gt;(everyday Scrum call in the morning and evening to get the status)" style="whiteSpace=wrap;html=1;rounded=1;" vertex="1" parent="1">
          <mxGeometry x="155" y="710" width="220" height="100" as="geometry" />
        </mxCell>
        <mxCell id="SSMy7xWhFjjoF7A64Ty3-14" style="edgeStyle=orthogonalEdgeStyle;rounded=0;orthogonalLoop=1;jettySize=auto;html=1;" edge="1" parent="1" source="SSMy7xWhFjjoF7A64Ty3-10" target="SSMy7xWhFjjoF7A64Ty3-11">
          <mxGeometry relative="1" as="geometry" />
        </mxCell>
        <mxCell id="SSMy7xWhFjjoF7A64Ty3-10" value="10th April to 13 April Sprint II&amp;nbsp;&lt;br&gt;13th April Sprint III discussion and Presentation&lt;br&gt;(everyday Scrum call in the morning and evening to get the status)" style="whiteSpace=wrap;html=1;rounded=1;" vertex="1" parent="1">
          <mxGeometry x="155" y="900" width="220" height="100" as="geometry" />
        </mxCell>
        <mxCell id="SSMy7xWhFjjoF7A64Ty3-11" value="17th April to 20th April Sprint II&amp;nbsp;&lt;br&gt;20th April Sprint IV discussion and Presentation&lt;br&gt;(everyday Scrum call in the morning and evening to get the status)" style="whiteSpace=wrap;html=1;rounded=1;" vertex="1" parent="1">
          <mxGeometry x="500" y="900" width="220" height="100" as="geometry" />
        </mxCell>
      </root>
    </mxGraphModel>
  </diagram>
</mxfile>
